<?xml version="1.0" encoding="utf-8"?>
<!-- Generator: Adobe Illustrator 18.0.0, SVG Export Plug-In . SVG Version: 6.00 Build 0)  -->
<!DOCTYPE svg PUBLIC "-//W3C//DTD SVG 1.1//EN" "http://www.w3.org/Graphics/SVG/1.1/DTD/svg11.dtd">
<svg version="1.1" id="Layer_2" xmlns="http://www.w3.org/2000/svg" xmlns:xlink="http://www.w3.org/1999/xlink" x="0px" y="0px"
	 viewBox="0 0 32 32" enable-background="new 0 0 32 32" xml:space="preserve">
<g>
	<path fill="#5F6064" d="M0,5.3v21.3C0,29.6,2.4,32,5.3,32H32V5.3V0h-5.3H5.3H0V5.3z"/>
	<g>
		<rect x="17.3" y="22.5" transform="matrix(0.866 0.5 -0.5 0.866 14.0407 -5.8888)" fill="none" width="1.4" height="1.4"/>
		<path fill="#FFFFFF" d="M27.8,24.7l-3.5-2l-2.8,1.8l4.8,2.8c1.3,0.7,2.8,1.1,4.2,1.1l0,0c0.5,0,0.9,0,1.4-0.1v-3
			C30.6,25.6,29.2,25.4,27.8,24.7z"/>
		<path fill="#FFFFFF" d="M25.8,17.1c0.8-1.3,2-2.2,3.4-2.6c0.9-0.2,1.9-0.3,2.8,0v-3c-0.5-0.1-0.9-0.1-1.4-0.1
			c-0.7,0-1.5,0.1-2.2,0.3c-2.2,0.6-4,2-5.2,4l-2.7,4.8l-1.2-0.7l-2.6-1.4l0,0l0,0l-4.8-2.8c-1.3-0.8-2.2-2-2.6-3.4
			c-0.4-1.4-0.2-2.9,0.6-4.2c0.8-1.3,2-2.2,3.4-2.6c1.4-0.4,2.9-0.2,4.2,0.6c1.3,0.8,2.2,2,2.6,3.4c0.4,1.4,0.2,2.9-0.6,4.2l-2,3.5
			l1.8,2.7l2.7-4.8c1.1-2,1.4-4.3,0.9-6.5c-0.6-2.2-2-4-4-5.2c-1.3-0.7-2.8-1.1-4.2-1.1c-0.7,0-1.5,0.1-2.2,0.3c-2.2,0.6-4,2-5.2,4
			c-1.1,2-1.4,4.3-0.8,6.5c0.6,2.2,2,4,4,5.2l4.8,2.8L14.5,22L13,24.6l-1.3-0.8l2.8-1.8l-4.8-2.8c-1.3-0.7-2.8-1.1-4.2-1.1
			c-0.7,0-1.5,0.1-2.2,0.3C2,18.7,0.9,19.3,0,20v5.4c0.1-0.6,0.3-1.1,0.6-1.6c0.8-1.3,2-2.2,3.4-2.6c1.4-0.4,2.9-0.2,4.2,0.6
			l4.8,2.8l-2.8,4.8c-0.8,1.3-2,2.2-3.4,2.6c-0.1,0-0.2,0-0.2,0.1H12c0.3-0.4,0.6-0.8,0.8-1.2l2.8-4.8l1.5-2.5l0.7-1.2L19,23
			l-0.7,1.2l-1.5,2.5l-3,5.2h3.4l2.2-3.8h0l1.5-2.6l0.7-1.2l1.5-2.6L25.8,17.1z"/>
		<path fill="#91C73D" d="M17.4,16.9l2-3.5c0.8-1.3,0.9-2.8,0.6-4.2c-0.4-1.4-1.3-2.6-2.6-3.4c-1.3-0.8-2.8-0.9-4.2-0.6
			c-1.4,0.4-2.6,1.3-3.4,2.6c-0.8,1.3-0.9,2.8-0.6,4.2c0.4,1.4,1.3,2.6,2.6,3.4l4.8,2.8l0,0L17.4,16.9L17.4,16.9z"/>
		<path fill="#E3701F" d="M29.2,14.5c-1.4,0.4-2.6,1.3-3.4,2.6L23,21.9l1.3,0.8l0,0l3.5,2c1.3,0.8,2.8,0.9,4.2,0.6V14.5
			C31.1,14.3,30.1,14.3,29.2,14.5z"/>
		<path fill="#4BB4D2" d="M10.2,29.4l2.8-4.8l-4.8-2.8C6.9,21,5.4,20.9,4,21.2c-1.4,0.4-2.6,1.3-3.4,2.6c-0.3,0.5-0.5,1.1-0.6,1.6
			v2.3c0,0.1,0,0.2,0.1,0.3c0.4,1.4,1.3,2.6,2.6,3.4c0.5,0.3,1,0.5,1.6,0.6h2.4c0.1,0,0.2,0,0.2-0.1C8.2,31.6,9.5,30.7,10.2,29.4z"
			/>
		<polygon fill="#C6CAC9" points="24.4,22.7 23,21.9 21.6,24.5 24.4,22.7 		"/>
		<polygon fill="#C6CAC9" points="17.4,16.9 16.7,18.2 16.7,18.2 19.3,19.7 17.4,16.9 		"/>
		<polygon fill="#C6CAC9" points="13,24.6 14.5,22 11.7,23.8 		"/>
		
			<rect x="15.5" y="24.4" transform="matrix(0.5002 -0.8659 0.8659 0.5002 -13.3073 27.2147)" fill="#C6CAC9" width="2.9" height="1.4"/>
		<polygon fill="#C6CAC9" points="19.4,28.2 25.9,32 31.8,32 20.9,25.7 19.4,28.2 		"/>
	</g>
</g>
</svg>
