<?xml version="1.0" encoding="utf-8"?>
<!-- Generator: Adobe Illustrator 18.0.0, SVG Export Plug-In . SVG Version: 6.00 Build 0)  -->
<!DOCTYPE svg PUBLIC "-//W3C//DTD SVG 1.1//EN" "http://www.w3.org/Graphics/SVG/1.1/DTD/svg11.dtd">
<svg version="1.1" id="Layer_2" xmlns="http://www.w3.org/2000/svg" xmlns:xlink="http://www.w3.org/1999/xlink" x="0px" y="0px"
	 viewBox="0 0 32 32" enable-background="new 0 0 32 32" xml:space="preserve">
<path fill="#FA9B39" d="M0,0v32h32V0H0z M8.5,26.2c-1.5,0-2.7-1.2-2.7-2.7c0-1.5,1.2-2.7,2.7-2.7c1.5,0,2.7,1.2,2.7,2.7
	C11.2,25,10,26.2,8.5,26.2z M15.3,26.2c0-2.6-1-5-2.8-6.8c-1.8-1.8-4.2-2.8-6.7-2.8v-3.9c7.4,0,13.5,6,13.5,13.5H15.3z M22.3,26.2
	c0-9.1-7.4-16.5-16.5-16.5V5.8c11.3,0,20.4,9.2,20.4,20.4H22.3z"/>
</svg>
