<?xml version="1.0" encoding="utf-8"?>
<!-- Generator: Adobe Illustrator 18.0.0, SVG Export Plug-In . SVG Version: 6.00 Build 0)  -->
<!DOCTYPE svg PUBLIC "-//W3C//DTD SVG 1.1//EN" "http://www.w3.org/Graphics/SVG/1.1/DTD/svg11.dtd">
<svg version="1.1" id="Layer_1" xmlns="http://www.w3.org/2000/svg" xmlns:xlink="http://www.w3.org/1999/xlink" x="0px" y="0px"
	 viewBox="0 0 32 32" enable-background="new 0 0 32 32" xml:space="preserve">
<path fill="#4099FF" d="M32,32H0V0h32V32z M8,8.5v8.9c0,4.7,3.6,8.6,8,8.6h5.5c1.4,0,2.5-1.1,2.5-2.5c0-1.4-1.1-2.5-2.4-2.5h-5.5
	c-1.6,0-3.1-1.7-3.1-3.6V16h8.6c1.4,0,2.5-1.1,2.5-2.5S22.9,11,21.5,11h-8.6V8.5c0-1.4-1-2.5-2.4-2.5C9.1,6,8,7.1,8,8.5"/>
</svg>
