<?xml version="1.0" encoding="utf-8"?>
<!-- Generator: Adobe Illustrator 18.0.0, SVG Export Plug-In . SVG Version: 6.00 Build 0)  -->
<!DOCTYPE svg PUBLIC "-//W3C//DTD SVG 1.1//EN" "http://www.w3.org/Graphics/SVG/1.1/DTD/svg11.dtd">
<svg version="1.1" id="Layer_1" xmlns="http://www.w3.org/2000/svg" xmlns:xlink="http://www.w3.org/1999/xlink" x="0px" y="0px"
	 viewBox="0 124.3 612 543.3" enable-background="new 0 124.3 612 543.3" xml:space="preserve">
<g>
	<g>
		<path fill="#6A181A" d="M610.6,316.5c-0.8,0.8-0.2,1.8,0.7,1.8C611.1,317.6,611.8,316.1,610.6,316.5z M552.8,508.5
			c-2.8,0.5-5.6,0.9-8,1.8c1.1,0.5,1,2.2,2.7,2.2c0-1.3,0.7-1.7,1.1-2.7c0,0.6,0,1.3,0.7,1.1C548.8,508.5,553.1,510.8,552.8,508.5z
			 M311.4,608.1c8.9-0.2,19.3,1.8,24.9-1.1c6.3,0.8,15.3,1,18.5-2.7c-35.3,1.5-72.1,1.5-104.9,5.6
			C269.8,609.4,291.6,608.6,311.4,608.1z M611.3,456.8v-35.5c-1.4,0.6-2.8,3.9-4.9,1.5c2.5-0.5,4.3-1.2,4.9-3.1c1.6-5,0-14.3,0-20.4
			c0-20.3,0-42.8,0-61.1c-3-0.2-3.3,4.3-5.6,3.4c-1.7-4.3,4.1-3.9,5.6-6v-16.2c-1.1-0.9-2.5,0.7-3.1-0.7c0.2-2,2.4-2.2,3.1-4.5
			c0.9-3.6-0.7-8.6,0-12.9H397.8c-0.2,11.7,0.5,24.4-0.4,35.5c-17.3-0.2-35.7,0.5-52.4-0.4c0-47.3,0-96.2,0-142.2
			c-3.5,1.7-9.5,4.3-14.4,6v9.4c0.3,1,1.7-0.8,1.8,0.7c-3,0.5-1.6,5.5-1.8,8.7c0.3,0.8,2.5-2.3,3.1-0.4c-0.4,1.4-3,0.8-3.1,2.7
			v121.5c9.5-5.4,18.8-2.5,26.4,1.5c5.7,3.1,8.4,7.8,15.8,6.8c4.7-6,17.9-4.6,23.1,0c4.7-3.4,8.6-7.4,16.2-8
			c0.2-9.1-0.5-19.1,0.4-27.5c61.4,0.2,123.7-0.5,184.5,0.4v158.1c-0.3,1.3,1.5,0.5,1.1,1.8c-2.3,2.6-0.6,9.2-1.1,13.6
			c-0.1,1.3,1.7,0.7,1.5,2.2c-0.5,0.5-2,0-1.5,1.5c0,53.9,0,103.3,0,156.6h-64.2c-1.3-0.4-0.3,1.7-1.5,1.5c-0.5-0.5,0-2-1.5-1.5
			c-29-0.2-58.9,0.5-87.1-0.4c1-2,2.3-3.7,3.8-5.3c1.1,1,0.5,3.7,2.2,4.2c-0.1-2.3-1.2-3.8-1.5-6c0.2-1.1,1.7-1,2.2-1.8
			c-1.3,0.1-1.9-0.5-1.8-1.8c0.1-0.5,0.9-0.3,1.5-0.4c-3.2-2-4.5-8.9-2.7-13.6c3.6,1.4,0.4,9.7,2.2,10.9c1.8-1.1-0.2-6.2,1.5-7.5
			c3.2,0.8-0.9,5.5,1.5,7.5c0.4-1.5,0.1-3.7,0.7-4.9c2.6,0.7,3.6,3.5,5.3,5.6c1.7,2.2,2.9,5.3,5.6,6.4c-1.4-2-4.5-7.3-5.6-9.9
			c-0.1-0.1-0.1-0.1-0.1-0.2c0,0.1,0.1,0.2,0.1,0.2c0.4,0.3,1.9,0.3,1.8-0.2c-1.4,0.1-1.9-0.6-2.2-1.5c4.4-0.4,7,3.1,9.4,3.4
			c-0.5-1-1.7-1.3-1.8-2.7c-3.1-1.6-8.8-0.8-9.4-4.9c3-0.4,8.2,2.1,12,0.7c-0.9,0-1.9-0.1-1.8-1.1c3.3-0.9,2.6,2.2,4.5,2.7
			c0.2-3.4-4.6-3.7-4.9-5.3c7,1.8,16.5,1.3,19.6,7.1c0-1.1-1-1.3-1.1-2.2c1.9,0.4,1.6,3.2,3.4,3.8c0.4-1.5-2-2.2-0.7-3.4
			c3.2,0.9,6.9,3.2,9.1,3.8c-4.1-3.8-6.5-4.5-10.9-8c-2.2,1.2-4.7-0.6-6-1.5c3.7,0.5,5.1,2.2,7.5-0.4c-5.7-1.4-10.6,0.8-15.5,0
			c-2.4-0.4-4.3-2.1-6.8-2.7c-4.4-0.8-8.1-1-12-2.2c1.2-0.7,0.1-0.6,0-1.8c-6.5-4.7-17.1-3-25.7-5.6c0.1-1.5-1.2-4.5,0.4-5.3
			c-0.4,1.2,0.5,1.2,1.5,1.1c17.6-0.1,34.5,0.8,52,0.7c1,0.3-0.3-1.7,0.7-1.5c1,0.6,1.8,1.4,3.1,1.8c23.5-0.6,45.7,0.8,65.3,0.4
			c0.9-0.1-0.2,1.7,1.1,1.1c6.5-1.6,15.3,2.3,19.6-0.4c-46-4.4-95.8-4.1-144.5-4.9c-2-15.6-1.3-29.4,3.4-41.5
			c2.4-6.2,4-12.5,6.4-16.2c4.2-6.4,11.2-9.6,17.3-13.2c4.1,5.3,9.3,19.8,18.2,21.1c6.4,1,6.7-4.9,9.4-8.3c2.5,3.4,6.5,1.3,10.2,1.5
			c3.8,0.2,7.2,2.8,11.7,1.5c5.8,5.4,8.2,14.3,19.6,14c6.6-3.6,8.7-11.7,10.2-20.4c6.5-1.5,20.9-2.1,21.9-8.7
			c1.2-7.9-10.5-11-15.8-14.7c-0.4-5.7-6.3-6-10.6-8c0,3.2-3.1,1.6-1.8,4.5c-2.7,0.6-2-1.9-4.5-1.5c-0.7,0.5,0.1,2.7-1.1,2.7
			c-3.2-1.5-3.9,1.7-5.3,1.5c-1.4-3.2,2.3-2.5,3.8-3.4c1.3-2.7,6.8-3,6.8-5.6c-0.1-1.5-2.3,0.1-2.7-0.7c2.7-1.8,1.4-5.3,1.5-9.4
			c4.3,1.3,11.7,1.3,15.1,0.4c0.2,1-1.4,0.3-1.5,1.1c5.3,1.1,3.6-3.3,6.4-4.2c0.7,2.3-2.2,3.1-1.1,3.8c3.6-0.1,6.2-1.1,8-3.1
			c6.4,0.3,8.8-6.6,8.7-14c4.3-5.7,11.5-8.6,11.3-18.9c-2.7-4.9-10.9-4.2-17.7-4.9c0.2-6.9,7-19.1,1.1-24.2
			c-7.2-6.2-19.6,7.2-27.1,2.2c-2.4-1.5-3.8-7.5-3.1-11.3c0.4-2,3.3-3.5,4.2-6c1.3-4,0.6-6.9-2.2-9.8c-3.1-0.3-4.6,0.9-6.8,1.5
			c-1-7.3-1.5-15.1-4.5-20.4c-2.4-0.1-3,2.1-5.3,1.8c-6.6-0.6-6.7-16.8-14.7-16.9c-4.6-0.1-5.9,5.1-8.7,6c-0.7,0.2-1.3-1.7-1.5,0
			c-0.6,1.4,0.1,0.7,0.7,1.5c-1,0.3-1.8,0.9-3.1,1.1c-2.3-1.5-1.5-4.1-2.7-6c-4.3-7.5-16.7-7.6-27.1-9.1c3.2-4.9,13-20.2,2.2-22.2
			c-10.2-2-25.1,5.9-29.8,9.4c-9.7-10.6-22.7,1.6-29.1,7.5c-2.2-5.1-6.9-7.7-14.4-7.5c-3.1,1.6-3.6,5.8-4.5,9.4
			c-8.4-2.8-15.1-7-21.5-11.7c-1.1-0.4-2.5,0.9-3.8,0c-0.3-0.9,1.8-1.7,0-1.8c-3.9-2.3-9.9-4.5-14-2.7c-7.5,3.5-5.4,18.1-4.2,26.8
			c-6.2,4.4-15.2,5.9-26,5.6c-1.6,1.1,0.7,2.4-0.7,3.1c-3.1-0.7-3.1,1.7-5.3,1.8c-1-0.8-2.4-1.3-3.4-2.2c1.4-1.5,5.1-0.6,6-2.7
			c-15.5-0.2-45-14.4-43,10.6c1.2,15.2,11.5,30,16.9,41.5c-6.2-0.3-22.2-1.6-23.4,3.4c-1.1,5.2,8.2,7,7.1,12
			c-0.3,1.5-3.7,2.4-4.5,4.2c-3.2,6.5,1.7,13.5,2.7,18.9c-2.7,2-3.2,8-1.5,10.2c-2.7,5.9-8,14-3.8,19.6c1.8,2.4,6.3,3.4,9.8,3.8
			c3.9,0.5,9.9-0.3,12.9,1.5c1.4,0.9,1.4,3.4,2.7,4.9c2.9,3.6,8.7,3.4,13.2,4.5c1.1,3.9,5,5.1,10.6,4.5c2.3,3.9,2.2,8.7,5.6,10.9
			c5.8,3.8,12.2-1.9,16.6-3.4c0.9,2.2-1.6,4.2-1.8,6.8c-0.4,4.1,1.4,6.7,4.2,8.7c0.2-0.5-0.4-1.9,0.4-1.8c0.4,2.4,2.4,3.4,3.8,4.9
			c1.5,9,2.3,19.8,10.9,20.7c6.8,0.8,13.9-5.2,18.5-9.4c5.4-5,9.6-10.6,13.2-14.7c6.7,7.2,27.1,10.9,28.7-3.4
			c1.1,2.2,2.2,4.5,3.1,7.1c2.8,0,3.1,0.5,5.6,0.4c1.1-0.8-0.9-2.5,0.4-3.4c-0.5,3.2,4.9,1.8,5.6,2.7c-1.1,1.7-3.1,0.5-5.6,0.7
			c-1,0.7-1,2.4-2.2,3.1c-0.4-1.4-0.6-1.6-2.2-1.1c0.1,2.7,2.5,6.3,3.4,9.4c2.3,0.2,4.1-0.2,5.6-0.7c-1.7,1-2.2,3.4-4.2,4.2
			c0.2-0.7-1-1.9-1.1-1.1c0.4,13.7-3.4,26.3-3.1,41.1c-14.6,0.1-32.1-0.1-47.9,0c-1.6,1.1-2.2,3.3-4.9,3.4
			c17.2-0.1,34.3-1.3,51.3-0.4c0.9-0.2-0.2-2.4,1.1-2.2c-0.7,2.4,0.6,4.6-0.4,6.8c-9.8,0.6-20.3,0.3-26.4,4.5
			c-1.1,0.1-1.8-0.9-2.7,0c-0.4,1.6,1.8,0.6,1.8,1.8c-3.8,0.3-7.4,2.2-11.7,2.7c-1.7,0.2-4.1-0.7-5.6-0.4c-1.8,0.4-3,2.5-4.9,3.1
			c-3.3,0.8-5.8,0.2-8,1.1c-0.6-1.3,1.3-0.2,1.1-1.1c-4.2,1.2-10.1,0.4-13.2,3.4c3.8-0.1,8.8-2.5,11.7,0c-1.9,1.1-2.5,3.9-5.3,4.9
			c-1.9,0.7-6.1-0.6-6,1.9c1.4-0.7,3.1-1.2,5.3-1.1c-1.1,2.2-4.1,2.7-5.6,4.5c4.9-0.3,6.9-5.4,10.6-5.6c0.5,2.4-2.6,5.1-0.7,6.4
			c2.3-5.9,8.1-8.6,14-10.9c-1.5,3.9-8,2.9-8.3,8c1.5-0.7,4.4-5.4,8-4.2c-1,0.7-3.3,0.3-3.1,2.2c1.3,0.4,2-1.7,3.1-0.4
			c-0.1,1.5,0.6,1.7,0,3.1c-5-0.7-6.7,1.8-10.9,1.8c3.1,1.4,6.7-1.5,9.8,0c0.3,1.6-1.2,1.5-1.5,2.7c2.5,0.2,1.9-2.9,4.2-3.1
			c0.4,1.1,1.9,3.2,3.1,2.2c-0.8-0.3-1.1-1.1-1.5-1.8c3.5,0.1,4.5-2.2,7.1-3.1c-0.1,0.7-2,1.4-0.7,2.2c1.7-0.7,1.6-3.2,3.4-3.8
			c2.3,2.7,2.3,5.4,0.4,8.7c1.6,0.1,1.9-3.1,3.1-2.2c-0.1,4,0.7,7.1,3.1,8.7c-0.1-1.7-1.6-1.8-1.5-3.8c0.4-0.6,1.2-1.1,1.8-0.4
			c-1.2-2.7-3-5.1-2.2-8.7c0.7-0.7,0.8-1.5,1.5-0.4c0.3-1.3-1.1-2.5,0.4-3.1c0.6,2.4-0.9,4.2-0.7,4.9c1.2,0.1,1.6,0.8,3.1,0.7
			c-0.4-0.5-2.2-4.8,0-6c1.2-0.4,2.5,1.1,3.4,0c-0.9,0.1-1.8,0.1-1.8-0.7c1.5,0.3,1.7-0.7,3.1-0.7c0.5,0.9-1.7,0.9-0.4,1.5
			c5.3-2.2,12.6-4.5,16.9-6.4c-1.2,4.5-5,7.5-6,12.9c-0.8,4.4,0.7,10.5-2.2,12.4h-87.9c-1.3,1.4-0.7,3.6-3.8,3.8
			c1.3-0.8,0.6-1.5,1.1-3.1c-2.8,0.5-2.4-0.1-0.4-0.7c-29.6,0.5-64.8-1-92.8,0.7c-0.4-0.6,0.2-0.5-1.1-0.7
			c-11.3-1.9-26.3,1.4-38.5,0c-1.3-0.3-0.5,1.5-1.8,1.1c-0.7-0.1,0-1.7-1.5-1.1c-51.5-0.2-104.1,0.5-155-0.4
			c0-143.3,0-285.5,0-429.3h131.3v-81.4h184.8c0.2,19.1-0.5,39.3,0.4,57.7c4.5-1.2,8.6-4.3,14-5.6v-66.5h-32
			c-0.6,2.9-3.7,2.8-5.6,3.8c-0.7,0.4-1.3,1.5-1.8,1.8c-5,3.1-11.7,5-16.6,6c0.5-3.4,5.8-1.9,5.6-6c4.7-1,9.4-4.8,13.6-3.1
			c0.4-1.9,4.2-0.3,4.2-2.7H157.8c-1.2-0.1-0.2,2.1-1.8,1.5c-1.2,0.1-0.7-1.6-1.8-1.5c-8.1,0.4-13.6-0.1-22.6,0v8.3
			c1.7-1.1,5.8-1.1,8.7,0c-3.3,1-5.1,2.2-8.7,2.2v70.9H31c-1.4,0.9-2.4,2.3-4.9,2.2c-1.5-1,2.8-2,0.7-2.2c-3.5-0.6-6,1-7.5,1.1
			c-1.2-0.1,1-1.4-0.7-1.1H0.1c0,58.1,0,117.3,0,176.6c0,61,0,126.5,0,185.2c0.6,1.3,2.8-1.1,3.1,0.7c-0.4,1.5-3,1-3.1,3.1
			c0.5,3.9-1.1,10,1.1,12c-0.5,0.6-1.5,0.7-1.1,2.2l-0.1,82h611.3V510.8c-0.3-1.1-0.6,0.9-1.5,0.4c0.1-1,1.8-0.5,1.5-1.8V483
			c-1.7-0.1-1.2,2-2.2,2.7c-0.5-0.7-2.1-1.1-3.1-0.4c-1.9,1.7,0.8,3.5,0.7,4.2c-1.1-0.2-1.1-1.7-3.1-1.1c1.1,2.1-0.4,1.8-1.1,3.8
			c-0.9-0.7-3.2-0.1-3.8-1.1c2.4-1.2,1.3-3.9,3.1-6c3.6,2.9,6.9-5.3,9.4-2.2c-0.1-6.3,0-15.5,0-23.1c0-1.1-1.4,1.1-1.5,0
			C609.6,457.9,611.8,458.7,611.3,456.8z M608.6,333.4c0.9,0.2,0.8-0.7,1.8-0.4c-0.2,0.7-1.1,0.7-0.7,1.8
			C608.8,335.1,608.5,334.4,608.6,333.4z M334.4,210.1c0.4-1.6,1.8-2.1,3.8-2.2C337.4,209.1,336.4,210,334.4,210.1z M365.4,341.8
			c-0.1-1,0.5-1.2,1.5-1.1C366.9,341.6,366.3,341.9,365.4,341.8z M498.1,315.4c0.1-0.9,1.6-0.4,1.8-1.1
			C501.8,314.9,499.6,315.7,498.1,315.4z M462.3,625.4c-4.6-0.5-8.4-1.9-12-3.4C454,621.9,460.6,622.2,462.3,625.4z M538.9,464
			c1.4-0.3,1.4,1.8,0,1.5C538.3,464.7,538.9,465,538.9,464z M519.6,473.8c0.4,0.1,0.3,0.7,0.7,0.7c-0.1,0.8-0.9,0.8-1.8,0.7
			C518.2,474.1,519.5,474.5,519.6,473.8z M523.1,534.9c-0.6-1.3-1.9-1.8-1.8-3.8c1.6-0.2,2.6-1.2,4.5-1.1c0,1.1-0.2,2.4,1.1,2.2
			C525.5,533.1,523.8,533.5,523.1,534.9z M534.7,533.4c-2.8,1.3-4.7,3.6-7.5,4.9c0.2-1.5,0.2-1.1,0-2.7c1.4-2,5.2-1.6,6-4.2
			c2.4,0,3.3,0.8,4.9,0.7C538.3,534.1,535.9,534,534.7,533.4z M532.8,527.3c1-1.5,3.4-1.6,4.5-3.1
			C538.2,526,534.3,527.9,532.8,527.3z M546.8,527.3c-1.6,2.5-5.4,2.9-7.1,5.3c-1.5-0.1,0.6-2-1.1-2.2
			C541.1,530.7,543.7,526.5,546.8,527.3z M538.5,520.2c-0.6,1.5-2.9,1.4-3.8,2.7c-1.4,0.2-1.4-0.8-2.7-0.7
			C534.1,520.7,536.1,521.4,538.5,520.2z M521.8,516.8c1.7,0.3,1.9,3.2,4.2,1.8c-1.7-2,1.3-2,1.8-3.8c1.3,1.6-1.5,1.9-0.4,3.8
			c-1.9,0.1-2.4,1.6-3.8,2.2c-0.8-0.8-1.4-1.8-2.2-2.7C521.4,517.6,521.9,517.5,521.8,516.8z M522.6,521c0.7,1.6-4.3,2.4-5.3,2.2
			C517.9,521.2,521.5,522.3,522.6,521z M520.7,539.1c-0.7,0.7-3.4,3.2-3.8,0.7C518.8,540.2,519.7,539.5,520.7,539.1z M515.1,521
			c-1,1,0.3,1.5,0.4,2.7c-1.4,0.1-1.4,1.6-3.1,1.5c0.4-1.9,0.4-3,0-4.9C513.9,520,513.9,521,515.1,521z M517.3,416
			c-1.4,0.1-0.7-1.8-1.8-1.8C515.7,413.8,517.8,414.6,517.3,416z M516.9,499.5c0.5,1.9-3.5,2.5-5.6,3.1
			C511.7,500,515.6,501,516.9,499.5z M512.4,407.8h1.1c-0.5,0.5-0.4,1.6-0.4,2.7C512.1,410.3,512.5,408.8,512.4,407.8z M511.7,428.5
			c0.6-0.1,0.6,0.3,1.1,0.4c0.1,1-0.5,1.2-1.5,1.1C511.1,429.2,511.5,429,511.7,428.5z M510.9,502.1c-0.5,1-0.9,2.1-2.7,1.8
			C508.4,502.5,509.3,501.9,510.9,502.1z M509.1,522.8c0.8,0.4-0.5,1.7,0,3.1c-1.1,0-0.9-1.3-1.1-2.2
			C508.3,523.2,509,523.3,509.1,522.8z M275.5,498.4c0.5-0.5,1.3-0.7,2.2-0.7C277.5,498.5,276.3,499.2,275.5,498.4z M341.6,368.2
			c1.1-0.6,4.4-0.8,4.2,1.1c-1.9-0.5-2.2,0.8-3.8,0.7C341.8,369.5,340.8,368.2,341.6,368.2z M335.9,359.8c0.2,0.1-0.5,2.4-0.7,3.4
			C332.9,362.4,335,360.7,335.9,359.8z M334.4,416.9c1,0,0.9,1.7,0.4,2.2C333.4,418.8,334.6,418,334.4,416.9z M355.2,420.2
			c0.4-3,5.7-1,7.5-2.7c0.3,0.6,0.3,1.8,0,2.7c-2.3,0.3-5,2.2-8.3,2.7c0.5-2.2-1.8-2-3.1-1.5c-0.3,1.3,0.6,1.4,0.4,2.7
			c-4.3,1.4-8.4,3.3-11.7,5.6c-1,3,0.3,4-1.1,6.8c0.9,0.7,2,1.2,3.1,1.8c-2.1,2.5-6.2,1.8-8.7,3.4c-1.3-0.6-1.2-2.6-1.1-4.5
			c1.5-0.1,1.9-1.3,2.2-2.7c1.6,0.6,1.5,1.8,0.4,3.1c0.2,0.5,0.6,0.9,1.1,1.1c1.6,0.1,1.7-1.2,2.7-1.8c-0.4-1.5-0.1-3.3-0.7-5.3
			c-2,1.4-4,1-5.6,2.2c-1.4,0.3-0.9-1.3-1.5-1.8c-4.3,0.3-4.5,2.8-5.6,5.3c-0.2-1.2,0.7-1.3,0.4-2.7c-2.1,0.4-2.4,0.8-4.2-0.4
			C331.5,428.8,342.1,422.4,355.2,420.2z M356.6,431.5c-1.2,0.3-1.1-0.6-1.8-0.7c-0.1-1.1,0.8-1.1,0.7-2.2h1.1
			C357.4,429.3,356.9,430.6,356.6,431.5z M348.7,435.7c-0.7,0.2-0.9,0.8-1.8,0.7c-0.4-0.9-0.6-1.8-2.2-1.5c1.3-1.4,3.1-2.7,5.6-1.8
			C349.4,433.9,347.8,434.2,348.7,435.7z M345,429.3c1-0.5,0.9-2.1,2.7-1.8c0.6,2.2-0.2,3-1.8,3.8
			C344.7,430.8,346.5,429.4,345,429.3z M341.2,433.8c-0.4-2.2,1.3-2.4,1.5-4.2C343.9,430.8,343.3,433.9,341.2,433.8z M316.6,437.2
			c-1.7,0.4-0.8,3.5-3.4,3.1c0.9-4.4,7.6-7.3,10.2-2.7c-2,0.6-3.5,1.7-6,1.8C317.7,438.2,317,437.9,316.6,437.2z M323,394.2v2.2
			c-1.8,0.8-3.5,0.6-5.6,1.5C317.6,395,320.9,395.1,323,394.2z M322.7,399.8c-1.4,3.2-6.5,2.8-9.1,4.9c-1,0.3,0.3-1.7-0.7-1.5
			C316.2,402.2,318.8,400.3,322.7,399.8z M280.4,416.9v-1.5c1,0.3,1-0.5,1.8-0.4C282.4,416.2,281.7,417,280.4,416.9z M284.6,415.3
			c-1.1,0.3-0.7-1-1.8-0.7c0.4-0.8,1.4-0.8,2.7-0.7C285.6,414.8,284.6,414.6,284.6,415.3z M285,507.7c-0.1-1.8,2.1-3,3.4-2.2
			C288.8,507.7,286.9,507.8,285,507.7z M286.8,413.8c0.2-1.8,1.9-1.4,3.4-1.1C289.8,413.7,287.8,413.3,286.8,413.8z M279.7,396.1
			c-1.4-0.6-2.4-1.6-3.4-2.7c6.8-2.5,12.3-4.4,18.9-6.8c0.9-0.1,0.4,1.1,1.1,1.1c0,1.2-2.1,0.4-2.7,1.1c-0.4,1,0.7,2.2,0,2.2
			c-1.2-0.1-0.9-1.8-1.1-3.1C290.7,393.3,284.8,394.2,279.7,396.1z M291.4,508.5c0.9,0.2,0.8-0.7,1.8-0.4c0,0.7,0.5,0.8,0.4,1.5
			C292.9,510.3,291.3,509.8,291.4,508.5z M292.5,412c0.5-2.9,5-1.8,5.6-4.5c1.1-0.3,0.7,1,1.8,0.7c1.9-0.8,3.8-3.1,6.4-1.8
			c0.9-1.1,2.9-2.2,4.5-1.5c-0.8,3.7-6.6,2.4-8.3,5.3C299.5,408.9,296.7,412.5,292.5,412z M309.5,445.8c-2.7-0.8-3.7-1-6-1.8
			c0.4-2.9,4.7-2.2,4.9-4.2C310.5,440.9,309,443.3,309.5,445.8z M307.6,434.2h1.1c-0.2,0.5,0.4,1.9-0.4,1.8
			C307.1,436.4,307.7,434.9,307.6,434.2z M300.4,505.9c0.3-0.9,1.2-1,1.5-1.8c1.1,0.2,1.7,0.8,1.8,1.8c-0.9,0.3-1,1.5-2.7,1.1
			C301.3,506.2,301.1,505.8,300.4,505.9z M299.3,461.3c0.2-0.9,1.3-1.9,2.2-1.1C301,460.9,300,462,299.3,461.3z M297.4,506.6
			c0.3-0.7,2.1,0.1,2.2-0.7c-0.1,0.5,0.9,1.5,0.4,2.2C298.7,508.1,297,508.5,297.4,506.6z M298.6,514.9c1.5-1.4,2.9-3.2,6-3.1
			C304.9,515.1,300.8,515.5,298.6,514.9z M305,461.3c-1.2-0.3-1.9-1-2.2-2.2c0.4,0,0.3-0.5,0.4-0.7h1.1c0.9,0.8-0.7,1.9,1.1,1.8
			C305.1,460.5,305,460.8,305,461.3z M309.1,511.5c0.8-1.3,2.5-1.7,3.8-2.7C312.6,510.6,310.6,512.2,309.1,511.5z M312.5,522.1
			c0.1-0.9,1.6-0.2,1.8,0c-0.1,0.7-0.6,0.8-1.5,0.7C312.9,522.4,312.8,522.1,312.5,522.1z M311,528.1c1.3-1.6,4-2,6.4-2.7
			C316.5,528,313.9,527.1,311,528.1z M316.6,448.5c-0.5-0.2-1.9,0.4-1.8-0.4c-1.1,1.7-3.3,0.3-3.8,2.7c-1.2-0.5-3.6,0.1-3.8-1.5
			c3.5,0.3,7.5-2.7,10.6-2.7C317.8,447.7,316.6,447.5,316.6,448.5z M318.5,446.6c0.6-2,3-2.3,5.3-2.7
			C322.8,445.6,321.1,446.5,318.5,446.6z M324.6,444c0.9-1.5,2.4-2.3,4.9-2.2C328.5,443.2,326.5,443.6,324.6,444z M329.9,461.7
			c0.2-1.1,0.8-1.9,2.2-1.8v1.5C331.7,461.7,330.8,461.7,329.9,461.7z M331,464.7c1.7-0.9,5-1.5,6.8-3.4c0.5,1.1,0.1,2.1,0.4,4.2
			C335.4,464.9,333.2,465.2,331,464.7z M339.7,553.7c-0.4-1.4,0.8-1.2,1.1-1.8C341.8,552.4,340.7,553.9,339.7,553.7z M340.1,495.7
			c-0.3-1.1,1-0.7,0.7-1.8c1.2,0.1,2.2,0.3,2.2,1.5C341.9,496,341.5,495.2,340.1,495.7z M343,449.3c-0.5,0.4-1.1,0.6-1.5,1.1
			c-1.2-0.3-0.5-1-0.4-1.8c-1.1,0.8,0.1-0.9-2.2-0.4c-0.3-0.8-0.9-2.1-0.4-2.7c2,1.1,2.6-1.2,4.5-1.1
			C344.1,446.1,342,447.5,343,449.3z M344.1,451.5c-0.2-1.4,0.8-1.4,0.7-2.7C345.7,449.3,345.2,451.6,344.1,451.5z M346.1,559.9
			c-0.6,0.7-1.5-0.1-1.5-1.1C345.6,558.5,346.2,558.8,346.1,559.9z M346.1,534.6c-0.3-0.3-0.4-0.8-0.4-1.5c0.9-0.9,1.8,0.1,3.1,0
			C348.5,534.2,347.3,534.4,346.1,534.6z M347.9,447.1c0.5-2-1.1-1.9-0.7-3.8C349.9,442.9,350.1,446.7,347.9,447.1z M349.5,443.6
			c0.8-1.9,4-2.8,5.6-2.7C354.1,442.9,351.9,444.3,349.5,443.6z M352.5,557.9c-1.8-0.8,0.5-2,0.7-3.1c0.7,0,0.8,0.5,1.5,0.4
			C353.5,555.7,353.2,557,352.5,557.9z M354.8,472.2c0.3-3,3.8-2.8,3.8-6c1.2,0.2,1.3-0.7,2.7-0.4
			C363.5,469.9,357.7,470.5,354.8,472.2z M359.2,459.1c-3.3-0.5-4.8,0.7-7.1,1.1c-0.3-1.1,0.4-1.3,0.4-2.2c3.3-0.5,3.9-2.4,5.6-4.9
			h1.1c-0.1,4.2,3.9-0.1,4.2,3.1C361,454.6,360.7,458.3,359.2,459.1z M350.6,632.6c-1-2,0.9-4.4,1.8-5.6c2,0.2,3.1-0.7,5.3-0.4
			C355.6,628.8,352,629.6,350.6,632.6z M366.8,625c0.1,0.7-1.7,1.1-0.7,1.5c-0.7,1.2-1.5-0.4-1.8-0.7
			C364.2,624.7,365.8,625.1,366.8,625z M362.7,629.9c-0.2-1.2,0.3-1.7,1.5-1.5C364.1,629.4,363.6,629.9,362.7,629.9z M363.8,634.9
			c0.7-2.8,3.7-5.4,6.8-4.5C369.5,633.1,367.6,634.9,363.8,634.9z M368.7,629.2c-0.7-1.7,2.8-2.6,5.3-2.2
			C373.5,629,370.6,628.6,368.7,629.2z M378.1,633.4c-1.5-0.2-1.9-1.5-1.8-3.4c1.5-0.1,2.1-1.1,3.8-1.1
			C379.7,630.7,378.2,631.4,378.1,633.4z M387.9,626.2c-0.1,0.9,0.6,1.2,1.1,1.5c-2.2,0.6-3.4,2.1-6,2.2c3.1-5.3,8.6-8.5,16.6-6
			C396.7,625.9,391.8,628.5,387.9,626.2z M334.8,189c-0.3,0.8-1.7,1.2-2.2,0.7C332.8,189.1,333.6,188.9,334.8,189z M297.7,125.2
			c0,2-2.9,1.2-3.4,2.7C293.9,126.7,296,124.3,297.7,125.2z M218.6,126.4C217.7,129.5,215.5,124.5,218.6,126.4L218.6,126.4z
			 M123.8,217.2v1.5c-0.7-0.2-1.6-0.1-1.5-1.1C122.7,217.3,123.2,217.2,123.8,217.2z M1.6,495.7c0.4-1.1,2.2-0.7,3.4-1.1
			C4.6,495.6,3.3,495.8,1.6,495.7z M7.2,492.2c1.9,0,4.2-1,6-2.2C14.2,491.8,7.9,495.4,7.2,492.2z M11.8,499.8
			c0.9,0.1,0.8,1.1,1.5,1.5c-1.4,0.9-2.3,2.4-4.9,2.2C8.3,501.1,10.5,500.9,11.8,499.8z M11,544.4c-0.5-0.5-0.7-1.3-0.7-2.2
			c1.1-0.5,2.3-1.1,3.8-0.4C13.4,542.9,11.5,542.9,11,544.4z M204.2,654.5c-0.8-0.8,0.1-1.5,0.4-2.2c0.5,0.1,0.6,0.7,1.1,0.7
			C205.7,653.9,205.2,654.4,204.2,654.5z M301.4,653.8l-1.7-0.4C300.4,652.5,300.8,653.3,301.4,653.8l1.3,0.3
			C302.1,654.3,301.7,654.1,301.4,653.8z M328.7,654.1c-0.8-0.7-0.8-1.9-0.4-3.1h1.5C330.1,652.8,329.7,653.7,328.7,654.1z
			 M444.2,623.6c0.4,1.9,1,3.8,0.7,6.4c-2.8-1.1-3.5-4.3-5.3-6.4C440.4,622.8,442.4,624,444.2,623.6z M427.6,622.4
			c0,1.2-0.8,1.6-2.2,1.5C425,622.4,426.3,622.4,427.6,622.4z M422.3,529.7c2.4,3.5-0.9,7.5-0.7,12
			C415.6,540.5,418.6,531.1,422.3,529.7z M421.6,544.8c-0.5,0.9-1,1.7-1.8,2.2c-1.1-1.1-1.2-3.3-1.5-5.3
			C419.5,542.4,421.2,542.9,421.6,544.8z M422.3,515.7c-1.6,1.5,1.4,6.8-2.2,7.5c-2.8-0.6-1.2-5.4,0-6.4c-0.4-1.3-1.3-2.4,0-3.4
			c1.4-0.2,1.7,0.7,2.7,1.1c0.7-1.6,1.7-2.8,2.7-4.2c3.6,1.7,0.1,6.6-1.8,7.5C422.4,517.8,423.1,516,422.3,515.7z M415.9,505.5
			c-1-1.3-1.8-3-2.2-4.9c1.8,1,3.9,0.2,3.8-1.8c0.7,0,0.8,0.5,1.5,0.4C417.6,500.9,416.8,503.2,415.9,505.5z M420.8,504.4
			c1.5-0.1,0.6,2.9-0.4,2.7C419.6,506.3,420.8,505.5,420.8,504.4z M423.4,498.4c0.3,0.2,0.6,0.4,1.1,0.4c0.4,2.4-1.3,2.7-1.5,4.5
			C421.2,502.1,423.2,499.7,423.4,498.4z M425.6,522.4c0.9,2.3-0.7,5.3-2.2,6.4C423,525.5,424.9,524.6,425.6,522.4z M427.2,525.9
			c4.6,4.4-0.5,11.5-3.1,14.7C423.1,535.1,425.5,529.9,427.2,525.9z M428,520.6c1.3,0.2,0.9,3.5,0,3.8
			C426,523.9,428.3,521.9,428,520.6z M428.3,554.9c0.1-1.1,1.8-1.8,2.7-1.1C430.5,554.7,429.6,555,428.3,554.9z M432.1,528.1
			c-1.4-0.7-1.1-5.1,1.5-4.2C434.1,526.3,432.4,526.5,432.1,528.1z M431.4,522.4c0.2-5.1,1.7-10.8,5.6-10.9
			C437.6,517.4,434.9,522,431.4,522.4z M433.6,503.3c-1.2,0.4-0.8,0-2.2,0c0.7-1.5,0.4-2,1.5-3.4C434.1,501,432.7,501.2,433.6,503.3
			z M434.7,503.6v1.5c-1.2,0.3-0.5-1.2-1.5-1.1C433.3,503.5,434.2,503.7,434.7,503.6z M440.4,532.6c-0.8-4.7,3.4-7.7,6-10.2
			c0.8,0.3,0.5,1.7,1.5,1.8C445.6,527.3,442,529,440.4,532.6z M441.1,519.8h1.1c0.4,1.4-1.4,0.6-1.1,1.8
			C440,521.4,441.4,520.5,441.1,519.8z M443,514.6c1.2,1.6-1.1,2.9-1.1,4.5C440.1,518,442.6,515.8,443,514.6z M443.8,521
			c0.3-0.8,0.3-1.9,0.7-2.7c0.8,0.1,0.3,1.4,1.1,1.5C445.3,520.5,444.9,521.1,443.8,521z M444.5,531.9c-0.2-1.7,2.9-3.5,3.8-5.3
			C452,528.8,447.5,531.7,444.5,531.9z M450.2,513.5c0-0.7,1.2-0.3,1.1-1.1c0.5,0.1,0.6,0.7,1.1,0.7
			C452.4,513.9,450.8,513.1,450.2,513.5z M460,501.7c-1-0.4,1-1,1.1-1.5c0.4-1.1-0.8-0.7-1.5-0.7c0.6-0.8,1.1-1.6,1.5-2.7
			c2.5,0.2,1.2,3.5,0.7,4.9C460.9,502.2,460.3,500.6,460,501.7z M461.5,521.7c0.1-2.4,1.4-2,4.2-2.2
			C464.2,520.1,463.3,521.3,461.5,521.7z M464.5,529.7c0.2-1.8,2.1-1.9,3.8-2.2C468.2,529.1,465.7,530.2,464.5,529.7z M467.6,518.3
			c0.4-1.4,1.9-1.8,3.8-1.8C470.3,517.2,469.4,518.2,467.6,518.3z M468.3,512.2c0.3-0.8,0.9-1.3,2.2-1.1
			C470.2,511.9,469.5,512.3,468.3,512.2z M471.3,510.8c0.3-1,1.2-1.3,2.7-1.1C474,511.2,472.5,511.3,471.3,510.8z M473.2,525.1
			c-0.2-1.2,0.1-1.9,0.7-2.2c0.3,0.2,0.6,0.4,1.1,0.4C474.9,524.3,474.7,525.3,473.2,525.1z M486.4,533.8c0-1.1,1.9-0.4,1.8-1.5
			C489.4,532.9,487.5,534,486.4,533.8z M488,498.7c0.7,0.5-0.5,2.2-1.5,2.2C486,499.4,487.9,499.9,488,498.7z M489.8,392.7
			c1-0.1,1.9-0.1,1.5,1.1C490.3,393.9,489.7,393.7,489.8,392.7z M496.2,528.4c-1.2,0.3-1.1-0.6-1.8-0.7
			C494.5,527,496.9,527,496.2,528.4z M494,526.2c-1.1,0.3-1.1-0.6-2.2-0.4c-0.3-1,0.5-1,0.4-1.8c0.8,0.4,1.2,0,2.2,0.7
			C494.1,525.1,494,525.6,494,526.2z M493.2,482.4c-0.7,0.2-0.9,0.8-1.8,0.7c-0.1-0.7-0.2-1.2-0.7-1.5c0-1,1.4-0.5,1.5-1.5
			C492.6,480.8,493.4,481.2,493.2,482.4z M491.7,384.4c0.7,0,0.8,0.5,1.5,0.4c-0.4,1.7-2,2.1-3.8,2.7
			C489.6,385.9,491.5,386.1,491.7,384.4z M484.9,453.1c1,1.2-1.8,1.7-2.2,2.7C481.9,454.9,483.7,453.2,484.9,453.1z M477.4,444.7
			v1.5C475.9,446.5,475.9,444.4,477.4,444.7z M475.8,391.2c1-0.1,1.2,0.5,1.1,1.5C475.7,393.6,475,392.2,475.8,391.2z M474.7,427.8
			c-0.2,0.3-1.6,1.9,0,1.8c0.2,1.3-1.3,0.9-1.1,2.2C472.4,431.4,472.7,427.4,474.7,427.8z M474.3,486.6c-0.1,1.1,0.8,1.1,0.7,2.2
			c1,0,2.1-1.8,1.1-2.7c2.7-0.3,6.4,1.2,9.8,2.2c0.9-0.8,3.1-1.1,3.1,0.7c-4.6,2-10.6,2.7-14,6c-2.3,0.1-2.2-2.2-4.9-1.8
			c0.1-1.1,1.7-2.5-0.4-2.7C471.1,489.2,472,487.1,474.3,486.6z M470.9,431.5c-0.4,0.7-1.3,2-2.2,1.1
			C469,431.9,469.8,431.5,470.9,431.5z M467.6,494.9c1.5,0.3,0.7-1.8,2.2-1.5c-0.6,3.6-4.9,5.2-7.5,2.7
			C463.7,494.4,465.8,492.2,467.6,494.9z M462.7,394.9c0.7,0.8,2.3,0.7,3.1,1.5c-1.4,1.4-3.5,1.2-5.6,1.5
			C460,396.1,462.1,396.3,462.7,394.9z M459.6,455.7c1.4-0.2,2.4,0.1,3.1,0.7c-0.6,0.5-1,1.2-2.2,1.1
			C460.2,456.8,459.3,456.8,459.6,455.7z M454,502.1c0.7-1.5-2-1.3-2.2-3.1c1.3,0.5,3.2,0.4,4.9,0.4
			C456.7,501.2,454.5,500.9,454,502.1z M454,490.4c0.9-0.1,1.5-0.7,2.2,0C456.4,491.2,453.6,491.7,454,490.4z M453.2,491.1
			c-0.4,0.8-1.5,2.1-2.7,1.1C451.1,490.8,452.1,491.5,453.2,491.1z M444.5,379.5c0.4,0.1,0.3,0.7,0.7,0.7c0,0.9-0.5,1.4-1.5,1.5
			C443.6,380.5,444.3,380.2,444.5,379.5z M445.6,408.5c-0.2,1-1,1.4-2.2,1.5C443.8,409.2,444.5,408.7,445.6,408.5z M444.9,474.6v2.7
			C443.1,477,442.3,474.5,444.9,474.6z M439.2,501.3c1.1-0.3,1.1,0.6,2.2,0.4c0.7-0.8,1.1-1.9,3.1-1.5c-0.7-1.4-0.8-2.5,0-3.8
			c2.3,1.7,4.3-1.8,6.4,0c-1.1,1.5-2.3,3-3.8,4.2c1.8-0.1,2.9,1.5,4.5,2.7c1.2-1,2.1-0.6,3.1,0.4c-1.3,3.8-4.4,2.4-8,3.1
			c-0.8-0.1,0.1,1.1,0.4,1.1c-2.9,1.9-5,2.9-8.7,4.5c0.1-0.9-0.1-1.4-0.4-1.8c-1.3-0.3-1.4,0.6-2.7,0.4c-0.3-3.1,3.3-2.1,2.7-4.5
			c-0.8-0.8-1.5-0.8-1.8-2.7c1-1.7,1.1-2.7,2.2-3.8C439.6,499.5,439.2,500.7,439.2,501.3z M438.5,492.2c-3.3-0.4-2.7-4.2-1.8-6.8
			c0.5,0.5,1,1.6,0.4,2.2c0.6,0.1,0.7-0.3,0.7-0.7C439.6,487.9,437.7,491.1,438.5,492.2z M435.8,478.7c0.3-0.8,0.9-1.3,2.2-1.1
			C438.4,478.9,437,478.7,435.8,478.7z M438.5,471.1c-1.5,0.8-4.2,0.9-3.8,2.7c-1.6,0.5-1.5,0-2.7-0.7
			C433.7,471.9,437,469.9,438.5,471.1z M432.9,470c-0.2,1.4-1.4,2.3-2.2,1.1C430.6,469.7,431.7,469.5,432.9,470z M435.1,479.1
			c0.1,0.7,0.2,1.2,0.7,1.5c-0.1,1.3-2,0.8-2.2,1.9c-0.4-0.1-0.2-0.4,0-0.4c-0.7-1-3.8,0.3-4.2-1.8
			C432.1,479.8,432.4,479.2,435.1,479.1z M433.6,490.4c0.8,1.6-2.7,2.1-4.2,2.7C430,491.3,432.4,491.5,433.6,490.4z M428.7,506.6
			c0.7-1,2.9-1.9,4.2-1.1c-0.7,2-1.2,1.7,0,3.4c-2.8-0.7-2,1.9-3.8,2.2c-0.6-0.6-0.3-2.2-0.4-3.4c-0.4,1.9-4,3.2-5.6,1.5
			c0.3-1,1.2-1.3,2.7-1.1c0.2-1.2-0.7-1.3-0.4-2.7C426.9,504.6,427.5,506.1,428.7,506.6z M426.1,485.9c-1.6,0.2-1.7-1-2.2-1.8
			c-1.1-0.1-2.1,0.9-3.1,0C422.3,481.8,427.2,481.9,426.1,485.9z M425.3,476c-0.5,0.2-1.9-0.4-1.8,0.4
			C422,475.3,425.7,473.2,425.3,476z M421.6,431.1c0.7,0.1,0.8,0.6,0.7,1.5c-1.4-0.3-1.5,1.4-2.7,0.4
			C419.5,431.6,421.5,432.4,421.6,431.1z M419.6,392c0.9,1.2-0.7,2.7-2.7,2.2C418.2,393.8,418.2,392.1,419.6,392z M414,399.8
			c-0.3,1.5-2.9,0.9-3.8,1.8C409,400.2,413.2,400.7,414,399.8z M414.7,453.8c-0.3,0.3-0.2,1-0.7,1.1h-0.7c-0.2-0.8,0.3-1,0.4-1.5
			C413.9,453.6,414.2,453.8,414.7,453.8z M419.2,454.9c-0.2,2.1-0.6,4,0.7,5.3c0.1,1.6-1.8,1.1-1.5,3.1c-1.6-0.7-6.1,0.7-5.6,3.1
			c-1,0.9-1.1-1.3-1.5-2.2c2.1-1.9,7.3-0.3,6.8-5.6c-3.5-2.3-5.2,3.3-9.4,2.7C411.2,457.7,416.5,456.9,419.2,454.9z M418.5,477.1
			c-0.2,2-1.8,2.8-3.8,3.1C414.8,478.1,417.2,478.1,418.5,477.1z M407.6,505.5c1.5,0,2.1,3.7,0.4,3.8
			C408.2,507.6,407.3,507.1,407.6,505.5z M404.9,497.5c2.2,1,3.5,3.1,3.8,6C406.9,502.3,404.7,499.6,404.9,497.5z M402.3,479.1
			c0-0.7,1.2-0.3,1.1-1.1c0.9,0.2,1.3,0.9,1.8,1.5c0.9-0.3,2-0.5,3.4-0.4c0.8,0,0.2-1.6,0.4-2.2c-0.7-0.5-3.5,2.2-3.8-0.7
			c2.6,0.3,3.5-1,4.9-1.8c0.8,1.1,2,1.9,3.8,2.2c-0.2,0.7-0.8,0.9-0.7,1.8C409.1,478.5,406,481.5,402.3,479.1z M408.3,485.9
			c0,0.7-0.5,0.8-0.4,1.5c-2.4,0-4.2,0.6-4.5,2.7C401.6,488,406.1,486.3,408.3,485.9z M408.7,467.3h1.5
			C410.5,468.9,408.4,468.9,408.7,467.3z M407.2,436.9c0.9,0.1,0.4,1.6,1.1,1.8c0,0.7-1.2,0.3-1.1,1.1c-0.1,0.3,0.1,0.3,0.4,0.4
			c-0.6,1.2-0.4-1.2-1.5-0.7C406.2,438.3,406.9,437.8,407.2,436.9z M408.3,455.7c0.5,1.7-1.5,1.8-2.2,1.1
			C406.4,456,407.2,455.6,408.3,455.7z M405.3,465.1c-0.3-1.4-1.5-0.3-2.7-0.4c0.5-1.2,2.7-0.9,2.7-2.7c1.6-0.1,0.4,2.3,0.4,3.1
			c0.1,0.3,0.4,0.4,0.4,0.7c1.4,0.2,1.4-0.8,2.7-0.7c-1.5,2.2-4,8.2-6.8,4.5C403.1,467.7,405.6,468.8,405.3,465.1z M400.5,440.6
			c-1.2-0.2-1.3,0.7-2.7,0.4C397.9,439.9,400.4,438.4,400.5,440.6z M395.9,436.9c-0.1,1-0.6,1.6-1.8,1.5
			C393.9,437.2,394.9,437.1,395.9,436.9z M380.4,420.6c0.3-0.3,0.8-0.4,1.5-0.4c0,0.6-0.2,1.4,0.4,1.5c0.1,0.3-0.1,0.3-0.4,0.4
			c-0.3-0.1-0.3,0.1-0.4,0.4C381.2,421.9,380.2,421.9,380.4,420.6z M366.5,454.2v-1.8c1.5-0.3,2.7-0.8,4.5-0.7
			c1.8-2.8,7.3-5,11.3-4.9c1.1-0.3,0.9-1.8,1.5-2.7c0.6,1.3,2.1,0.9,3.1,1.1c-1.5,3-4,5.1-8.3,5.3c-3.6,2.9-8.9,4-14.4,4.9
			C363.9,454,365.3,454.2,366.5,454.2z M367.9,532.2c-1.2,0.4-1.2-0.5-1.1-1.5h1.1V532.2z M369.9,531.5c-1-0.4,0-2,1.1-1.5
			C371.3,531.2,370,530.8,369.9,531.5z M369.1,464.4c-1.2,0.2-0.3-1.7-1.1-1.8c2.1-1.3,3.3-1.9,5.6-3.4v0.7c0.3,0.1,0.3-0.1,0.4-0.4
			c1,0.9-2.1,0.8-1.5,2.7C370.1,461.5,370.6,464,369.1,464.4z M371.7,471.5c1.8-0.5,4-0.8,6-1.1
			C377.4,473.3,373.1,473.3,371.7,471.5z M376.3,458.4c0-1,2.3-1.7,3.1-0.7C379.1,458.8,376.8,458.7,376.3,458.4z M380.1,458.7
			c0.4-0.1,1.4-1.5,0.4-1.8c1.3-1.2,2.3-1,4.5-0.7c-0.1,2.9,0.3,6.1-1.8,7.1c0.1-1.7,0.1-3.1-1.1-4.9
			C380.8,458.2,380.9,459.6,380.1,458.7z M382.7,536.4c-0.1-1.3,1.7-0.7,1.5-2.2C385.8,534.7,384.5,537,382.7,536.4z M383.8,473.4
			c1.4-0.3,0.8,1.4,1.8,1.5C384.8,476.1,382.6,474.4,383.8,473.4z M389.8,470c-1,0.2-1.5,0.9-2.7,1.1c0-0.5,0.1-1-0.4-1.1
			c0.1-1.1,2-0.5,2.2-1.5C389.7,468.6,389.9,469.2,389.8,470z M388.7,445.8c0.9-3.5,4.9-3.9,8.3-4.9
			C396.3,444.6,392.3,445.1,388.7,445.8z M394.7,451.1c-0.2,1-1,1.5-2.2,1.5C392.4,451.2,393.8,451.5,394.7,451.1z M397.8,510.4
			c1.1,2.9,1.7,6.3,1.8,10.2C395,518.9,394.3,513.9,397.8,510.4z M394.7,476.4c0.2-1.4,1.2-2.1,1.1-3.8c0.4-0.2,1.3,0.2,1.7,0
			c0.1-0.2,0.1-0.3,0.2-0.4c0,0.2-0.1,0.3-0.2,0.4C397.2,473.7,396.6,476.4,394.7,476.4z M393.6,467c0.8-1.8,3.8-1.5,3.8-4.2
			c0.8,0.1,0.1,1.6,1.1,1.5c1.6-0.3,1.9-1.8,3.8-1.8C401.2,465.4,397.4,469.1,393.6,467z M403.4,500.2c2.2,1.4,4.2,4.7,3.1,8.3
			c-1.5-0.6-2.4-1.8-2.7-3.8c-1.3-0.6-0.2,1.3-1.1,1.1c-0.7,0-0.8-0.5-1.5-0.4C401.2,502.9,402.7,502,403.4,500.2z M401.6,506.2
			c1.9,0.5,4.2,3.7,1.8,4.9C402,510.3,401.9,508.1,401.6,506.2z M406.8,514.2c-2,3.9,1.8,7.9,1.5,12.4c-4.1-2.3-3.2-9.7-5.3-14
			c1.1-0.7,3.1-0.7,2.7-3.1c4.6,1.5,3.8,8.5,4.2,14.4C407,522.5,408.2,517,406.8,514.2z M405.7,493.8c-0.5-0.1-0.1-1.1-0.7-1.1
			c2.4-0.7,1.2-2.9,3.1-4.2c0.7-0.4,1.2,1.1,1.5,0c0.5,0.2,0.7,0.8,0.7,1.5c4.3,0.3,7.2-3.7,10.6-1.8c-0.2,1.3-2.1,0.9-2.7,1.8
			c-0.7-0.2-0.3-1.4-1.5-1.1c-1.8,0-1.1,1.5-1.5,2.2C411.7,492.2,407.6,491.6,405.7,493.8z M412.5,510.4v-1.1c0.4-0.3,1-0.5,1.8-0.4
			C414.3,510,413.9,510.7,412.5,510.4z M414.7,512.2c1.6-0.6,2.2,1.7,3.4,0.4c0.9,0.1-0.4,1-0.4,1.5
			C416.1,514.3,415.2,513.4,414.7,512.2z M417,527c0-1.2,1.1-1.4,0.7-3.1h1.5C419.3,525.7,418.1,527.6,417,527z M411,619.4
			c-1.2,1.3-3.7,1.3-5.3,2.2C406.2,619.6,408.3,619.2,411,619.4z M403,633.4c4.3,2.1-0.6,6.4-2.2,8.3
			C399.7,638.6,402.1,635.6,403,633.4z M420,649.9c-2.3-0.2-2.5,0-2.7,1.5c-0.7-0.1-0.8-0.6-0.7-1.5c-6.5-0.1-11.4,0.2-17.3,0
			c-0.2-5.9,2.1-9.2,5.6-11.3c0.5,3.8,0.7,7.8,2.7,10.2c0.8-0.2-0.1-2,1.1-1.8c-3.3-1.1-2.1-5.4-2.7-10.6c-0.6-6.6-1.3-9.6,3.8-12.4
			c1.4,1.3,4.3,0.5,6.4,0.4C419,630.7,424,641.8,420,649.9z M421.6,553.4c0.5,0,1,0.1,1.1-0.4C424.2,553.9,421.2,555.6,421.6,553.4z
			 M425.3,637.9c-1.4-2.1-1.7-5.3-3.1-7.5C423.6,631.1,425.4,634.4,425.3,637.9z M432.9,623.6c3.8,1.9,6.7,4.5,8,9.1
			c-5.6-2.2-12.6-3-15.1-8.3C427.8,625,431.1,624.3,432.9,623.6z M441.9,638.3c-1.7-2.1-4.2-3.9-7.1-5.6
			C437.9,632.3,442.1,634.1,441.9,638.3z M426.8,640.1c1.3,0.3,0.5,2.8,0.7,4.2C425.5,644,426.9,641.7,426.8,640.1z M428,649.9
			c-1.5,0.5-1.1-0.9-1.1-1.8C427.5,648.4,428.1,648.8,428,649.9z M440,647.4c-2,2.1-8.2,2-9.8-0.4c0.3-7.4-1.7-12.6-4.2-17.3
			c4.8,1.9,11.6,5.2,15.1,9.8C440.1,641.4,440.7,645,440,647.4z M443.4,639.4c1.2,2-0.9,3.9-1.1,5.6
			C440.4,643.7,442.5,640.5,443.4,639.4z M606.4,565.9c0,1.1-1,1.3-1.1,2.2c-1,0.2-0.3-1.4-1.1-1.5
			C604.6,566.1,605.5,565.9,606.4,565.9z M602.6,325.9c1.7,0.4,2.4-1.7,3.4,0c-0.3,0.7-1.4,0.6-1.5,1.5
			C604.5,326.3,602.4,327.2,602.6,325.9z M603,461.7c0.4-0.7,0.4-1.8,1.8-1.5C604.3,460.8,604.1,461.7,603,461.7z M567.9,493.1
			c-1.4,5.6-4.6,9.5-9.1,12c-0.2,1.2,1.8,0.8,0.7,1.8c-3.4,2.3-8.6,2.8-10.9,6c1.4,2.2,5.4,4.2,8.3,2.7c0.2,1.7-2.5,0.5-2.7,1.8
			c7,4,13,15,7.1,23.4c-4.2,6.1-13,8.6-21.5,10.2c-3.1,10.4-7.4,20.8-18.9,21.9c-11.5,1.1-17.9-7.4-23.8-14c-3.1-0.1-5.3-1-8.3-1.1
			c-1.8,0.7-2.7,3.9-5.6,2.2c1.2-0.9,0.6-1.4,2.2-1.8c-3.5,0.4-5.1,4-9.1,5.3c-1,0.3-2.4,0.7-3.8,0.7c-5.3,0.3-8.6-2.7-12.9-3.4
			c1.3-1.4-1.4-2.1-2.2-3.1c-3.5-3.4-6.3-8-9.1-11.3c-10.2,4.9-7.8,22.4-8,37.3c0.3,0.8,2.8-1.5,3.1,0.4c-1,0.6-2.5,0.7-3.1,1.8v5.6
			h127.5C568,559,568.8,525.2,567.9,493.1z M444.2,568.8V567c0.8-0.2,1,0.3,1.5,0.4C445.6,568.3,445.1,568.8,444.2,568.8z
			 M452.1,575.3c0.3-0.6,0.7-1.3,1.8-1.1C454.1,575.4,453.2,575.4,452.1,575.3z M453.6,571.1c-1,0.3-0.7-0.7-1.5-0.7
			c0.3-0.8,0.9-1.3,2.2-1.1C454.2,570,453.5,570.2,453.6,571.1z M452.9,559.5c-0.1-0.8,1.6-2.9,3.8-2.7
			C455.9,558.2,454.5,558.9,452.9,559.5z M457.4,569.7c-0.6-0.7,0-0.5,0-1.5h1.5C458.4,568.6,458.6,569.8,457.4,569.7z M461.5,571.5
			c0.7-1.1,2.6-1.2,4.2-1.5C464.5,570.8,462.5,572.9,461.5,571.5z M464.9,565.9c0.1-1.6,1.6,0.2,1.8-0.7c0.5,0.1,0.1,1.1,0.7,1.1
			C466.6,567.5,466.2,565.4,464.9,565.9z M471.8,568.5c-1.2,0.2-2,0.7-3.4,0.7c-0.1-1.8,2.4-1.1,3.1-2.2
			C472.5,567.3,471.8,567.5,471.8,568.5z M477.4,567c-1,0.2-0.3-1.4-1.1-1.5c0.8-0.9,2.7-0.9,2.7,0.7
			C478.2,566.3,477.6,566.5,477.4,567z M261.2,371.2c8.2-4.4,19.8-1.8,28.7-0.4c4.3,0.7,8.3,1,12,1.5V167.5H174.8
			c-0.4,0.1-0.4,0.6-0.4,1.1v423.3h127.5v-36.2c-0.8-0.9-5.8-1.9-5.6-3.8c2.4-0.1,4-0.7,5.6-2.2c-0.5-3.9,0.7-6.5,0-9.1
			c-0.9-3.4-5-4.9-5.3-8.3c-4.3-0.1-7-3.6-10.9-5.3c-2.5-1.1-5.6-1.6-8.3-3.1c-3-1.6-5.5-5.6-8-6.4c-3.9-1.3-7.6-0.4-10.6-1.1
			c-14.6-3.4-20.5-19.2-11.7-33.1c-1-4.2,0.2-8.3,1.5-11.3c-1.4-4.9-3-9.5-2.2-15.5c0.3-2.7,2.1-5,1.8-7.5c-0.3-3.9-4-5.5-4.2-9.4
			c-0.4-9.6,7.2-13.3,16.9-14.4C252.9,410,243.2,381,261.2,371.2z M289.1,231.2v-1.5c0.8-0.2,1,0.3,1.5,0.4
			C290.3,230.6,290.1,231.3,289.1,231.2z M297.4,227c-0.3,0.7-1,1-1.8,1.1C295.4,227,296.3,227,297.4,227z M291.7,219.2
			c-0.7,1.6-3.1,2.9-4.9,2.2C287.9,219.3,289.5,219.9,291.7,219.2z M279.7,337.6c0.2,1.4-1.5,0.9-1.8,1.8
			C276.9,338.8,278.5,337.4,279.7,337.6z M275.5,219.2c-1.5,0.2-2.7,1.9-3.8,0.4C272.3,218.8,275.5,217,275.5,219.2z M273.3,203.3
			c0.5,0.1,0.6,0.7,1.1,0.7c0,1-1.7,0.9-2.2,0.4C272,203.6,273.3,204,273.3,203.3z M273.3,213.9c0.3,1.4-1.7,1.3-2.2,0.7
			C271.3,213.8,272.5,213.2,273.3,213.9z M271.7,342.1c-0.2,0.7-1.7,0.2-1.8,1.1C268.9,342.4,270.8,341.3,271.7,342.1z M267.2,342.5
			c1.1-0.3,0.7,1,1.8,0.7c-0.5,0.5-1.3,0.7-2.2,0.7C266.7,343.2,267.1,343,267.2,342.5z M263.5,345.2c-0.6,1.5-2.7,1.6-4.5,1.8
			C260,346,261.2,345.1,263.5,345.2z M300.1,567c0.5,0.9-1.1,1.5,0,1.8C299.5,569.8,298.1,566.8,300.1,567z M290.2,555.7
			c0.1-1.9,2.4-1.5,4.2-1.8c0.3,1.2,0.6,2.4,0.7,3.8h-1.8C293.6,555.6,292,555.5,290.2,555.7z M294.8,571.1c-2-0.1-0.6-1.7,0-2.2
			C296.2,569.2,294.7,570,294.8,571.1z M295.9,533c-0.6,1-1.9,1.3-3.1,1.8C292.8,534.9,294.5,531.6,295.9,533z M292.1,534.2
			c0.2,1.6-0.9,2-2.7,1.8C289.7,534.7,290.7,534.3,292.1,534.2z M291.4,571.9c-0.5,1.3-2.3,1.1-3.4,1.8
			C287.1,572.7,290.4,572.5,291.4,571.9z M284.2,561c-1.9-0.7-1.4,0.4-3.4,0.4C280.8,560.3,284.5,558.7,284.2,561z M257.8,542.8
			c-0.3-1.3,1-1.7,1.5-1.1C259,542.2,258.8,542.9,257.8,542.8z M263.9,540.2c0.6-1.1,1.3-2.1,3.1-2.2
			C267.1,540.7,265.3,539.8,263.9,540.2z M268.4,528.9c-0.1,1.5-1.9,1.3-3.1,1.8C263.6,529.1,266.2,528,268.4,528.9z M261.9,527.3
			c0.3,1.7-1.2,1.5-2.2,1.8C259.9,528.1,260.5,527.3,261.9,527.3z M263.9,530.4c0.1,3.2-5.4,2.5-6.8,3.1
			C259.4,532.5,261.3,529.9,263.9,530.4z M252.1,535.3c-0.8,0.5-1.1,1.4-2.2,1.5C249.9,535.6,250.9,535.4,252.1,535.3z M189.5,192.8
			c-0.1,1.5-2.7,2.1-3.8,1.5C186,192.9,187.7,192.7,189.5,192.8z M177.5,196.8c3.2,0.5,3.4-1.8,6-1.8
			C181.9,195.6,178.4,199.2,177.5,196.8z M181.6,325.2c-0.7-0.3,0.7-1.5,0.7-2.2c1-0.3,1,0.5,1.8,0.4
			C184.5,325.1,182.4,324.4,181.6,325.2z M186.5,323.2c-0.5-0.3-1.2-0.6-1.1-1.5c0.7-0.2,1.5-0.2,1.8-0.7
			C188,321.3,186.6,322.5,186.5,323.2z M191.8,345.9c-1.6,0.3-1.6-0.9-1.5-2.2C191.9,343.3,192.7,344.9,191.8,345.9z M188.8,321.4
			c0.9-1.8,3.6-1.9,5.6-2.7C192.7,319.8,191.5,321.3,188.8,321.4z M196.7,582.1c1.8,0.9,2.2-1.7,4.5-1.5
			C201.2,582.4,197,584.1,196.7,582.1z M200.8,366.7c-0.3-1.1,0.6-1.1,0.4-2.2h1.1C201.9,365.1,202.5,367.1,200.8,366.7z
			 M202.7,581.3v-1.1c0.8-0.2,1,0.3,1.5,0.4C204.1,581.2,203.6,581.4,202.7,581.3z M203.5,365.9c-1.1-0.3,0.2-1.2,0-1.8
			C205.1,363.9,203.7,365.6,203.5,365.9z M205,363.6c0.8-0.6,2.1-0.6,3.4-0.7C207.8,363.6,206,364.5,205,363.6z M209.5,361.4
			c0.3-0.8,1.1-1.1,2.2-1.1C211.4,361.1,210.6,361.4,209.5,361.4z M227.6,305.6c0.2-0.5,0.8-0.7,1.5-0.7v1.5
			C228,306.7,228.2,305.7,227.6,305.6z M228.4,354.5c-0.8-0.5,1.1-2.9,2.2-1.5C231.1,354.8,228.7,353.7,228.4,354.5z M232.6,276.8
			c0.9,0.1,0.2,1.8,1.5,1.5c-0.6,1.1-1.3,0.4-2.7,0.4C231.6,277.9,232.2,277.5,232.6,276.8z M231.7,352c0.1-2,3.5-0.7,3.8-2.7
			c0.8,0.2,0.2,1.7,1.1,1.8C235.1,350.5,233.4,352.2,231.7,352z M241.9,283.2c0.7-0.8,1.1-1.9,1.5-3.1c2,0.8,2.2-0.8,3.8,0
			C245.7,281.5,243.5,282.1,241.9,283.2z M236.6,277.2c0-0.5,0.1-1-0.4-1.1c3.6-2.3,8-2.5,12.4-4.5
			C245.3,274.1,241,275.7,236.6,277.2z M72.5,591.9c23.3,0,48.8,0,73.2,0V249H43.6c-0.4,0.1-0.4,0.6-0.4,1.1v341.8
			c7.2-1.1,15.5,1.4,21.9,0c2.7-0.6,4.4-3.8,7.1-1.9c1.7-0.9,1.7-3.6,4.2-3.8c0,3.2,3.1-0.6,4.9,1.1
			C80.1,590.6,73.8,588.8,72.5,591.9z M135.6,507.7c0.3-0.3,0.8-0.4,1.5-0.4v1.1C136.4,508.5,135.1,508.9,135.6,507.7z M69.2,467.8
			c0.8-0.2,1,0.3,1.5,0.4c0.2,0.8-0.3,1-0.4,1.5C69.2,469.8,69.1,468.9,69.2,467.8z M66.1,488.5c0.8,0.4-0.5,1.7,0,3.1
			C64.9,491.4,65.9,489.4,66.1,488.5z M49.6,288.5c-1.3,0.1-1.9-0.5-1.8-1.8C48.3,287.2,49.7,287.1,49.6,288.5z M48,563.9
			c-0.8-0.1-0.1-1.6-1.1-1.5c0.1-0.4,0.7-0.3,0.7-0.7C48.8,562.2,48.9,563.2,48,563.9z M48.5,539.5H50
			C50.3,541.2,47.9,541.4,48.5,539.5z M50.3,575.7c-0.3-0.1-0.3,0.1-0.4,0.4c-0.9-1.6,4.1-1.9,3.8,0.7
			C51.8,577.2,51.8,575.6,50.3,575.7z M53.3,561.7c-0.3-0.3-0.2-1-0.7-1.1c0.1-0.4,0.4-0.2,0.4,0c1,0.3,1-0.5,1.8-0.4
			C54.4,560.8,54.5,561.9,53.3,561.7z M59.4,262.9c0.8,0.8-1.9,1.3-2.7,1.8C56,262.5,58.8,263.9,59.4,262.9z M66.9,557.2
			c-1.4-0.9-3.5,0.2-3.8,1.5c-1.5-0.5-3.2,0.1-4.5-1.1c0.2-1.1,0.8-1.7,1.8-1.8c-0.1,0.9,0.1,1.4,0.4,1.8c1.2,0.2,1.1-0.7,1.8,0
			c-0.6-1.8-0.9-3,0.4-4.2c0.5,0.6-0.4,2.7,0.7,3.4c1.1-0.2,1.3-1.4,3.1-1.1V557.2z M68,502.8c-1.1,0.1-2,0-1.8-1.1
			C67.2,501.6,68.2,501.6,68,502.8z M70.7,494.2c-2.3,0.4-3.8,1.8-5.3,3.1c0.3-3.8,6-4.6,3.4-9.1C70.5,487.9,70.8,492.4,70.7,494.2z
			 M466.4,344.7c3.8,3.7,3.4,12.3,1.1,17.3c7.6,1.5,13.1,4.8,18.2,7.1c11.6-7.4,23.7,2.8,26.4,12.4c3.2-1.2,6.2,1.7,9.1,0.7
			c-0.7,2.1,1.8,3.7,3.1,6c1.7,3.6,2.4,7.9,3.4,12c9.9,1.4,13.7,17.4,8,26.4c15.3-7.1,30.5-0.7,30.6,15.5c0,2.9-2.9,8.2,1.8,8.7
			c0.9-35,0.1-72.3,0.4-106.8C534.5,344.6,499.6,343.9,466.4,344.7z M507.6,359.1c-2-1.1,0.5-3,2.7-2.2
			C509.7,358,508.1,358,507.6,359.1z M508.3,367c0.9-0.1,1.4,0.1,1.8,0.4C510.3,368.4,507.7,368.7,508.3,367z M511.3,377.2
			c-1.9-0.2-1.2-1.3-1.1-3.1h1.5C511.2,375.3,511.6,375.5,511.3,377.2z M536.6,358.3c-1-1.2,2.3-1.4,2.7-2.7
			c0.9,0.8,1.3,2.1,2.7,2.7C540.2,361.1,538.3,357.5,536.6,358.3z M544.5,357.2c0.5-0.5,0.7-2.7-0.4-2.7
			C545.1,353.2,546.7,357.6,544.5,357.2z M380.8,559.9c-7.3,0.7-11.5,4.6-14,10.2c-6.2,1.9-11.6,8.1-19.6,9.1
			c-6.7,0.8-12-1.3-16.6-5.3V592h61.5c0.4-0.9,2.3-2.1,3.1-1.5c0,1-1.4,0.5-1.5,1.5h5.6c0.3-9.3,1.9-17.2,3.1-25.7
			c-0.1-1.1-1.4,1.5-1.8,0c0.8-1.8,1.8-4.3-0.4-6c-3.3,2.2-10.2,2.2-14.7,1.1c0,1.7-0.4,3.3-2.7,2.7c-0.3-1.3,1.5-0.5,1.1-1.8
			c-1.7,0.3-2.1-0.6-3.4-0.7C380.6,560.8,381,560.6,380.8,559.9z M393.2,569.2c1.3-1.4,1.6-3.9,4.5-3.8c0,2.1-2.9,1.3-1.8,4.5
			c-2.5,1.2-4.5,0.8-7.1,1.5C387.4,569,391.6,569.9,393.2,569.2z M352.5,585.5c0-1.7,3.1-0.4,3.4-1.8c0.4,0.1,0.3,0.7,0.4,1.1
			C354.7,584.5,353.6,586.3,352.5,585.5z M363,577.9c-0.7-0.1-0.8-0.6-0.7-1.5h1.5C363.6,577,363.2,577.4,363,577.9z M379.2,574.9
			c-1,0.9-3.5,0.6-3.8,2.2c-0.7-0.1-0.2-1.3-0.7-1.5c-2.2,0.7-3.6,2.1-6.4,2.2c-0.5,1.1,0.3,1.3-0.4,2.2c-0.8-0.2-1.1-0.9-2.2-0.7
			c0.8-1.1,0.8-3,1.5-4.2c2.2,0.2,4.8-1.4,4.5-3.8c3,0.8,3.8,1.8,7.1,1.1C378.6,573.8,379.5,573.7,379.2,574.9z"/>
	</g>
</g>
</svg>
